<svg width="1058" height="1025" viewBox="0 0 1058 1025" fill="none" xmlns="http://www.w3.org/2000/svg">
<ellipse cx="526.992" cy="164.297" rx="77.4988" ry="77.499" fill="#D300F6"/>
<rect width="154.998" height="588.991" rx="77.4989" transform="matrix(0.499999 -0.866027 0.806358 0.591428 0 134.251)" fill="#ECBC10"/>
<path d="M917.609 48.9347C952.123 23.6207 997.45 33.1485 1018.85 70.2157V70.2157C1040.25 107.283 1029.62 157.853 995.108 183.167L645.154 439.843C610.641 465.157 565.314 455.629 543.913 418.562V418.562C522.512 381.494 533.142 330.924 567.655 305.611L917.609 48.9347Z" fill="#1083EC"/>
<rect x="449.493" y="435.027" width="154.998" height="588.992" rx="77.4988" fill="#25C717"/>
<path d="M475.76 302.936C505.546 305.564 526.133 338.343 532.703 354.404C538.909 337.248 557.671 302.936 583.076 302.936C614.833 302.936 635.755 330.737 638.924 342.358C642.21 354.404 659.731 421.203 532.703 519.759C424.073 440.914 415.166 368.64 424.292 342.358C429.037 328.122 445.974 300.308 475.76 302.936Z" fill="#FF0000"/>
</svg>
